<?xml version="1.0" standalone="no"?>
<!DOCTYPE svg PUBLIC "-//W3C//DTD SVG 20010904//EN"
 "http://www.w3.org/TR/2001/REC-SVG-20010904/DTD/svg10.dtd">
<svg version="1.0" xmlns="http://www.w3.org/2000/svg"
 width="700.000000pt" height="700.000000pt" viewBox="0 0 700.000000 700.000000"
 preserveAspectRatio="xMidYMid meet">
<metadata>
Created by potrace 1.11, written by Peter Selinger 2001-2013
</metadata>
<g transform="translate(0.000000,700.000000) scale(0.100000,-0.100000)"
fill="#000000" stroke="none">
<path d="M1762 6538 c-52 -25 -82 -62 -163 -206 -35 -62 -72 -128 -83 -145
-37 -64 -329 -570 -749 -1297 -236 -410 -444 -770 -462 -800 -18 -30 -44 -75
-57 -100 -21 -38 -110 -193 -138 -240 -5 -8 -27 -45 -49 -82 -51 -88 -64 -130
-59 -187 6 -58 -4 -39 223 -431 103 -179 230 -399 283 -490 52 -91 127 -221
167 -290 40 -69 148 -255 240 -415 92 -159 175 -303 185 -320 9 -16 68 -118
130 -225 62 -107 187 -325 279 -484 91 -159 181 -305 199 -323 67 -68 -70 -63
1791 -62 1264 0 1694 3 1717 12 77 29 81 35 306 427 53 91 153 264 223 385 70
121 137 238 150 260 80 139 294 511 655 1135 227 393 421 733 431 755 24 51
24 119 0 170 -10 22 -93 171 -186 330 -92 160 -177 306 -187 325 -46 81 -158
275 -453 785 -264 456 -446 771 -525 910 -236 412 -311 536 -342 567 -20 20
-54 41 -75 47 -26 8 -566 11 -1723 10 -1682 0 -1685 0 -1728 -21z"/>
</g>
</svg>
